<svg aria-hidden="true" style="width:0;height:0;position:absolute" overflow="hidden" xmlns="http://www.w3.org/2000/svg"><defs><symbol id="icon-dashboard" viewBox="0 0 32 32"><path d="M12 30.333h8v-2h-8v2zm8 0c3.432 0 6.094-.68 7.874-2.46s2.46-4.442 2.46-7.874h-2c0 3.235-.653 5.239-1.874 6.46s-3.225 1.874-6.46 1.874v2zM30.333 20v-8h-2v8h2zm0-8c0-3.432-.68-6.094-2.46-7.874s-4.442-2.46-7.874-2.46v2c3.235 0 5.239.653 6.46 1.874s1.874 3.225 1.874 6.46h2zM20 1.667h-8v2h8v-2zm-8 0c-3.432 0-6.094.68-7.874 2.46s-2.46 4.442-2.46 7.874h2c0-3.235.653-5.239 1.874-6.46S8.765 3.667 12 3.667v-2zM1.667 12v8h2v-8h-2zm0 8c0 3.432.68 6.094 2.46 7.874s4.442 2.46 7.874 2.46v-2c-3.235 0-5.239-.653-6.46-1.874S3.667 23.235 3.667 20h-2zM21.707 18.147l.707.707.002-.002-.709-.705zm-5.574 1.373.3-.954a1 1 0 0 0-1.006.245l.706.708zm-3.453 3.44-.706-.708a.387.387 0 0 0-.02.021l.726.688zm-1.093.36.147-.989-.014-.002-.132.991zm-1.6-.213.132-.991-.008-.001-.124.992zm-1.094-1.094-.991.132.003.02.988-.152zm-.213-1.6.991-.132-.003-.02-.988.152zm.36-1.093-.707-.707-.019.019.726.688zm3.44-3.44.707.707a1 1 0 0 0 .249-1.001l-.956.294zm1.373-5.573zm7.854 0zM21 17.44a4.53 4.53 0 0 1-4.566 1.127l-.6 1.908a6.531 6.531 0 0 0 6.581-1.62l-1.414-1.414zm-5.572 1.372-3.453 3.44 1.411 1.417 3.453-3.44-1.411-1.417zm-3.474 3.46c.019-.02.023-.019.002-.006a.58.58 0 0 1-.193.063c-.031.004-.04.001-.029.003l-.293 1.978c.37.055.743-.003 1.05-.104a2.21 2.21 0 0 0 .916-.558l-1.452-1.375zm-.235.057-1.6-.213-.264 1.982 1.6.213.264-1.982zm-1.608-.215c.001 0-.055-.011-.128-.086s-.098-.146-.101-.168l-1.977.304c.077.498.332.94.652 1.266s.771.601 1.306.668l.248-1.985zm-.226-.233-.213-1.6-1.982.264.213 1.6 1.982-.264zm-.217-1.62c.004.025 0 .025.004-.004.003-.027.011-.064.026-.107s.032-.081.048-.111c.018-.031.027-.04.02-.032l-1.452-1.375a2.413 2.413 0 0 0-.512.881 2.284 2.284 0 0 0-.111 1.052l1.977-.304zm.079-.234 3.44-3.44-1.414-1.414-3.44 3.44 1.414 1.414zm3.689-4.441a4.557 4.557 0 0 1 1.125-4.572L13.147 9.6a6.56 6.56 0 0 0-1.622 6.575l1.912-.588zm1.124-4.572c1.768-1.768 4.657-1.771 6.441.002l1.41-1.419c-2.562-2.546-6.714-2.55-9.265.002l1.414 1.414zm6.442.002c1.764 1.753 1.77 4.64-.004 6.426l1.419 1.41c2.545-2.561 2.552-6.714-.004-9.254l-1.41 1.419z"/><path d="M13.222 22.41a1 1 0 1 0 1.422-1.406l-1.422 1.406zm.289-2.553a1 1 0 1 0-1.422 1.406l1.422-1.406zm1.134 1.147-1.133-1.147-1.422 1.406 1.133 1.147 1.422-1.406zM17.859 12.933a1.333 1.333 0 0 0 0 2.666v-2.667zm.012 2.667a1.333 1.333 0 0 0 0-2.666v2.667zm-.012 0h.012v-2.667h-.012V15.6z"/></symbol><symbol id="icon-promote" viewBox="0 0 32 32"><path d="M16 30.334a3.06 3.06 0 0 1-2.213-.92l-2.027-2.027c-.16-.16-.587-.333-.8-.333H8.08a3.13 3.13 0 0 1-3.133-3.133v-2.88c0-.213-.173-.64-.333-.8l-2.027-2.027c-.587-.587-.92-1.373-.92-2.213s.32-1.627.92-2.213l2.027-2.027c.16-.16.333-.587.333-.8v-2.88A3.13 3.13 0 0 1 8.08 4.948h2.88c.213 0 .64-.173.8-.333l2.027-2.027c1.173-1.173 3.253-1.173 4.427 0l2.027 2.027c.16.16.587.333.8.333h2.88a3.13 3.13 0 0 1 3.133 3.133v2.88c0 .213.173.64.333.8l2.027 2.027c.587.587.92 1.373.92 2.213s-.32 1.627-.92 2.213l-2.027 2.027c-.16.16-.333.587-.333.8v2.88a3.13 3.13 0 0 1-3.133 3.133h-2.88c-.213 0-.64.173-.8.333l-2.027 2.027c-.587.6-1.373.92-2.213.92zM6.027 18.827c.533.533.92 1.467.92 2.213v2.88c0 .627.507 1.133 1.133 1.133h2.88c.747 0 1.68.387 2.213.92L15.2 28a1.16 1.16 0 0 0 1.6 0l2.027-2.027c.533-.533 1.467-.92 2.213-.92h2.88c.627 0 1.133-.507 1.133-1.133v-2.88c0-.747.387-1.68.92-2.213L28 16.8c.213-.213.333-.493.333-.8s-.12-.587-.333-.8l-2.027-2.027c-.533-.533-.92-1.467-.92-2.213V8.08c0-.627-.507-1.133-1.133-1.133h-2.88c-.747 0-1.68-.387-2.213-.92L16.8 4a1.16 1.16 0 0 0-1.6 0l-2.027 2.027c-.533.533-1.467.92-2.213.92H8.08c-.627 0-1.133.507-1.133 1.133v2.88c0 .747-.387 1.68-.92 2.213L4 15.2c-.213.213-.333.493-.333.8s.12.587.333.8l2.027 2.027z"/><path d="M20 21.333c-.747 0-1.347-.6-1.347-1.333s.6-1.333 1.333-1.333 1.333.6 1.333 1.333-.587 1.333-1.32 1.333zM12.013 13.333c-.747 0-1.347-.6-1.347-1.333s.6-1.333 1.333-1.333 1.333.6 1.333 1.333-.587 1.333-1.32 1.333zM11.999 20.999a.99.99 0 0 1-.707-.293 1.005 1.005 0 0 1 0-1.413l8-8c.387-.387 1.027-.387 1.413 0s.387 1.027 0 1.413l-8 8c-.2.2-.453.293-.707.293z"/></symbol><symbol id="icon-income" viewBox="0 0 32 32"><path d="M15.335 22.481a1 1 0 0 0-2 0h2zm-9.533 0a1 1 0 0 0-2 0h2zm7.533 0v2.707h2v-2.707h-2zm0 2.706c0 1.615-1.551 3.147-3.76 3.147v2c3.044 0 5.76-2.175 5.76-5.147h-2zm-3.76 3.147c-2.213 0-3.773-1.535-3.773-3.147h-2c0 2.975 2.733 5.147 5.773 5.147v-2zm-3.773-3.147V22.48h-2v2.707h2zm-2-2.706c0 3.039 2.797 4.92 5.773 4.92v-2c-2.304 0-3.773-1.373-3.773-2.92h-2zm5.773 4.92c2.967 0 5.76-1.898 5.76-4.92h-2c0 1.538-1.474 2.92-3.76 2.92v2z"/><path d="m13.827 20.627.854.52.003-.005-.857-.515zm-8.534 0-.858.515.006.009.852-.524zm.88-4.734.659.753.001-.001-.659-.752zm6.747 0-.653.758.013.011.64-.768zm.413 2.92c0 .474-.132.911-.364 1.299l1.715 1.029a4.502 4.502 0 0 0 .649-2.328h-2zm-.361 1.294c-.566.931-1.813 1.626-3.412 1.626v2c2.134 0 4.114-.931 5.121-2.587l-1.709-1.039zM9.56 21.733c-1.594 0-2.846-.705-3.415-1.63L4.441 21.15c1.005 1.635 2.979 2.583 5.119 2.583v-2zm-3.409-1.621a2.494 2.494 0 0 1-.364-1.299h-2c0 .859.242 1.649.649 2.328l1.715-1.029zm-.364-1.299c0-.82.378-1.584 1.045-2.167l-1.317-1.505c-1.04.91-1.728 2.199-1.728 3.673h2zm1.046-2.168c.674-.591 1.623-.965 2.714-.965v-2c-1.549 0-2.973.533-4.033 1.461l1.319 1.504zm2.714-.965c1.084 0 2.038.383 2.721.971l1.305-1.515c-1.051-.905-2.47-1.456-4.026-1.456v2zm2.733.982c.674.561 1.054 1.329 1.054 2.152h2c0-1.471-.687-2.783-1.773-3.688l-1.28 1.536z"/><path d="m12.949 15.88.659-.753-.006-.005-.653.758zm.386 2.933v3.667h2v-3.667h-2zm0 3.667c0 1.549-1.472 2.92-3.76 2.92v2c2.965 0 5.76-1.882 5.76-4.92h-2zm-3.76 2.92c-2.29 0-3.773-1.385-3.773-2.92h-2c0 3.025 2.81 4.92 5.773 4.92v-2zm-3.773-2.92v-3.667h-2v3.667h2zm0-3.667c0-1.614 1.549-3.147 3.773-3.147v-2c-3.056 0-5.773 2.174-5.773 5.147h2zm3.773-3.146c1.084 0 2.038.383 2.721.971l1.305-1.515c-1.051-.905-2.47-1.456-4.026-1.456v2zm2.715.966c.664.581 1.045 1.357 1.045 2.181h2c0-1.469-.685-2.773-1.728-3.686l-1.317 1.505zM28 18.733v1l.036-.001-.036-.999zm-5.493-2.493.997-.083-.001-.012-.995.095zm.799-2.173.699.716.018-.018-.716-.698zm4.694-.8.036-.999-.036-.001v1zm.333 1.36v2.747h2v-2.747h-2zm0 2.746a.368.368 0 0 1-.369.36l.071 1.999c1.271-.045 2.298-1.073 2.298-2.359h-2zm-.333.36h-2.613v2H28v-2zm-2.613 0c-.999 0-1.813-.73-1.883-1.576l-1.993.166c.169 2.033 1.995 3.41 3.876 3.41v-2zm-1.885-1.588a1.676 1.676 0 0 1 .503-1.363l-1.397-1.431a3.679 3.679 0 0 0-1.097 2.984l1.991-.19zm.521-1.381a1.659 1.659 0 0 1 1.204-.498v-2a3.66 3.66 0 0 0-2.637 1.102l1.433 1.395zm1.204-.497H28v-2h-2.773v2zm2.737-.001a.37.37 0 0 1 .369.361h2c0-1.286-1.027-2.314-2.298-2.359l-.071 1.999z"/><path d="M1.667 14a1 1 0 0 0 2 0h-2zm6.586-9.253.124.992a.314.314 0 0 0 .028-.004l-.152-.988zm14.08-.014-.164.986.049.007.116-.993zM28 13.267v1a1 1 0 0 0 1-1h-1zm-4.693.8.699.716.018-.018-.716-.698zm-.8 2.173.997-.083-.001-.012-.995.095zM28 18.733h1a1 1 0 0 0-1-1v1zm-10 7.6a1 1 0 0 0 0 2v-2zM3.667 14v-2.667h-2V14h2zm0-2.667c0-1.61.483-2.91 1.279-3.845.795-.932 1.955-1.565 3.432-1.75l-.249-1.984c-1.924.241-3.556 1.089-4.705 2.437-1.147 1.345-1.757 3.125-1.757 5.142h2zm4.738-5.598c.293-.045.602-.068.928-.068v-2c-.421 0-.832.03-1.232.092l.304 1.977zm.928-.068h12v-2h-12v2zm12 0c.326 0 .596.013.836.053l.329-1.973c-.4-.067-.797-.08-1.164-.08v2zm.885.06c1.496.174 2.674.804 3.482 1.74.809.938 1.3 2.246 1.3 3.867h2c0-2.033-.622-3.825-1.786-5.173-1.166-1.351-2.821-2.194-4.765-2.42l-.231 1.987zM27 11.333v1.933h2v-1.933h-2zm1 .934h-2.773v2H28v-2zm-2.773 0a3.655 3.655 0 0 0-2.636 1.102l1.433 1.395a1.659 1.659 0 0 1 1.204-.498v-2zm-2.619 1.084a3.679 3.679 0 0 0-1.097 2.984l1.991-.19a1.676 1.676 0 0 1 .503-1.363l-1.397-1.431zm-1.098 2.972c.169 2.033 1.995 3.41 3.877 3.41v-2c-.999 0-1.813-.73-1.883-1.576l-1.993.166zm3.877 3.41H28v-2h-2.613v2zm1.613-1v1.933h2v-1.933h-2zm0 1.934c0 1.773-.587 3.172-1.54 4.126s-2.353 1.54-4.126 1.54v2c2.227 0 4.161-.747 5.54-2.126S29 22.894 29 20.667h-2zm-5.667 5.666H18v2h3.333v-2z"/></symbol><symbol id="icon-chevron-right" viewBox="0 0 32 32"><path stroke-linejoin="round" stroke-linecap="round" stroke-width="4" d="m12 24 8-8-8-8"/></symbol><symbol id="icon-product" viewBox="0 0 32 32"><path d="M20 30.333h-8C4.76 30.333 1.667 27.24 1.667 20v-8C1.667 4.76 4.76 1.667 12 1.667h8c7.24 0 10.333 3.093 10.333 10.333v8c0 7.24-3.093 10.333-10.333 10.333zM12 3.667c-6.147 0-8.333 2.187-8.333 8.333v8c0 6.147 2.187 8.333 8.333 8.333h8c6.147 0 8.333-2.187 8.333-8.333v-8c0-6.147-2.187-8.333-8.333-8.333h-8z"/><path d="M16.001 17.44a1 1 0 0 1-.507-.133l-7.067-4.08a.99.99 0 0 1-.36-1.36.99.99 0 0 1 1.36-.36l6.56 3.8 6.52-3.773c.48-.28 1.093-.107 1.36.36s.107 1.093-.36 1.36l-7.013 4.053a1.05 1.05 0 0 1-.493.133z"/><path d="M16 24.693c-.547 0-1-.453-1-1V16.44c0-.547.453-1 1-1s1 .453 1 1v7.253c0 .547-.453 1-1 1z"/><path d="M16 25c-.773 0-1.533-.173-2.147-.507L9.586 22.12c-1.28-.707-2.267-2.4-2.267-3.867v-4.52c0-1.453 1-3.147 2.267-3.867l4.267-2.373c1.227-.68 3.067-.68 4.293 0l4.267 2.373c1.28.707 2.267 2.4 2.267 3.867v4.52c0 1.453-1 3.147-2.267 3.867l-4.267 2.373c-.613.347-1.373.507-2.147.507zm0-16c-.44 0-.867.08-1.173.253l-4.267 2.373c-.653.36-1.24 1.373-1.24 2.107v4.52c0 .747.587 1.747 1.24 2.107l4.267 2.373c.613.347 1.733.347 2.347 0l4.267-2.373c.653-.36 1.24-1.373 1.24-2.107v-4.52c0-.747-.587-1.747-1.24-2.107l-4.267-2.373C16.867 9.08 16.441 9 16.001 9z"/></symbol><symbol id="icon-help" viewBox="0 0 32 32"><path d="M12.333 27.507a2.35 2.35 0 0 1-1.107-.28c-.76-.4-1.227-1.2-1.227-2.053v-1.893c-4.027-.413-6.667-3.373-6.667-7.613v-8c0-4.587 3.08-7.667 7.667-7.667h13.333c4.587 0 7.667 3.08 7.667 7.667v8c0 4.587-3.08 7.667-7.667 7.667h-5.027l-5.68 3.787c-.387.253-.84.387-1.293.387zM11 1.987c-3.44 0-5.667 2.227-5.667 5.667v8c0 3.44 2.227 5.667 5.667 5.667.547 0 1 .453 1 1v2.84c0 .173.107.253.173.293s.2.08.347-.013l5.933-3.947c.16-.107.36-.173.56-.173h5.333c3.44 0 5.667-2.227 5.667-5.667v-8c0-3.44-2.227-5.667-5.667-5.667H10.999z"/><path d="M17.666 13.893c-.547 0-1-.453-1-1v-.28c0-1.547 1.133-2.307 1.56-2.6.493-.333.653-.56.653-.907 0-.667-.547-1.213-1.213-1.213s-1.213.547-1.213 1.213c0 .547-.453 1-1 1s-1-.453-1-1c0-1.773 1.44-3.213 3.213-3.213s3.213 1.44 3.213 3.213c0 1.52-1.12 2.28-1.533 2.56-.52.347-.68.573-.68.947v.28c0 .56-.453 1-1 1zM17.667 17.214c-.56 0-1-.453-1-1s.453-1 1-1c.547 0 1 .453 1 1s-.44 1-1 1z"/></symbol><symbol id="icon-dashboard-logo" viewBox="0 0 32 32"><path d="M16 30.173c-.893 0-1.8-.2-2.507-.613L6.16 25.333c-2.987-2.013-3.173-2.32-3.173-5.48v-7.707c0-3.16.173-3.467 3.107-5.453l7.387-4.267c1.4-.813 3.6-.813 5 0l7.36 4.24c2.987 2.013 3.173 2.32 3.173 5.48v7.693c0 3.16-.173 3.467-3.107 5.453l-7.387 4.267c-.72.413-1.627.613-2.52.613zm0-26.347c-.56 0-1.107.107-1.493.333l-7.333 4.24c-2.173 1.467-2.173 1.467-2.173 3.747v7.693c0 2.28 0 2.28 2.227 3.787l7.28 4.2c.787.453 2.213.453 3 0l7.333-4.24c2.16-1.467 2.16-1.467 2.16-3.747v-7.693c0-2.28 0-2.28-2.227-3.787l-7.28-4.2c-.387-.227-.933-.333-1.493-.333z"/><path d="M16 21c-2.76 0-5-2.24-5-5s2.24-5 5-5 5 2.24 5 5-2.24 5-5 5zm0-8c-1.653 0-3 1.347-3 3s1.347 3 3 3 3-1.347 3-3-1.347-3-3-3z"/></symbol><symbol id="icon-customers" viewBox="0 0 32 32"><path d="M20.001 30.333h-8c-1.76 0-3.227-.173-4.467-.547a1.022 1.022 0 0 1-.72-1.04c.333-3.987 4.373-7.12 9.187-7.12s8.84 3.12 9.187 7.12a.983.983 0 0 1-.72 1.04c-1.24.373-2.707.547-4.467.547zM8.961 28.08c.88.173 1.88.253 3.04.253h8c1.16 0 2.16-.08 3.04-.253-.707-2.56-3.627-4.453-7.04-4.453s-6.333 1.893-7.04 4.453z"/><path d="m7.813 28.827-.272.962a1 1 0 0 0 1.268-.878l-.996-.084zm16.374 0-.996.084a1.002 1.002 0 0 0 1.268.878l-.272-.962zM20 1.667h-8v2h8v-2zm-8 0c-3.432 0-6.094.68-7.874 2.46s-2.46 4.442-2.46 7.874h2c0-3.235.653-5.239 1.874-6.46S8.765 3.667 12 3.667v-2zM1.667 12v8h2v-8h-2zm0 8c0 2.601.389 4.752 1.347 6.417.982 1.706 2.501 2.798 4.528 3.372l.545-1.924c-1.6-.453-2.654-1.254-3.339-2.445-.709-1.232-1.08-2.98-1.08-5.42h-2zm7.143 8.911c.236-2.79 3.2-5.284 7.19-5.284v-2c-4.676 0-8.832 2.972-9.183 7.116l1.993.169zM16 23.627c3.99 0 6.954 2.494 7.19 5.284l1.993-.169c-.351-4.143-4.507-7.116-9.183-7.116v2zm8.459 6.162c2.027-.574 3.546-1.666 4.528-3.372.958-1.665 1.347-3.816 1.347-6.417h-2c0 2.439-.371 4.188-1.08 5.42-.685 1.191-1.739 1.992-3.339 2.445l.545 1.924zM30.333 20v-8h-2v8h2zm0-8c0-3.432-.68-6.094-2.46-7.874s-4.442-2.46-7.874-2.46v2c3.235 0 5.239.653 6.46 1.874s1.874 3.225 1.874 6.46h2zM16 17.893a3.78 3.78 0 0 1-3.773-3.787h-2c0 3.189 2.577 5.787 5.773 5.787v-2zm-3.773-3.786A3.768 3.768 0 0 1 16 10.334v-2a5.768 5.768 0 0 0-5.773 5.773h2zM16 10.333a3.768 3.768 0 0 1 3.773 3.773h2A5.768 5.768 0 0 0 16 8.333v2zm3.773 3.774A3.78 3.78 0 0 1 16 17.894v2c3.196 0 5.773-2.598 5.773-5.787h-2z"/><path d="M16 19.893c-3.187 0-5.773-2.6-5.773-5.787S12.814 8.333 16 8.333c3.187 0 5.773 2.587 5.773 5.773S19.186 19.893 16 19.893zm0-9.56a3.778 3.778 0 0 0-3.773 3.773c0 2.093 1.693 3.787 3.773 3.787a3.78 3.78 0 0 0 0-7.56z"/></symbol><symbol id="icon-search" viewBox="0 0 32 32"><path fill="none" stroke="#7e7e7e" style="stroke:var(--color1,#7e7e7e)" stroke-linejoin="round" stroke-linecap="round" stroke-width="2.667" d="M14.667 25.333c5.891 0 10.667-4.776 10.667-10.667S20.558 3.999 14.667 3.999 4 8.775 4 14.666s4.776 10.667 10.667 10.667zM28 28l-5.8-5.8"/></symbol></defs></svg>