<svg aria-hidden="true" style="position:absolute;width:0;height:0" overflow="hidden" version="1.1" xmlns="http://www.w3.org/2000/svg" xmlns:xlink="http://www.w3.org/1999/xlink"><defs>
<!-- <symbol id="icon-dashboard" viewBox="0 0 32 32">
<path  stroke-linejoin="round" stroke-linecap="round" stroke-miterlimit="4" stroke-width="2" d="M12 29.333h8c6.667 0 9.333-2.667 9.333-9.333v-8c0-6.667-2.667-9.333-9.333-9.333h-8c-6.667 0-9.333 2.667-9.333 9.333v8c0 6.667 2.667 9.333 9.333 9.333z"></path>
<path   stroke-linejoin="round" stroke-linecap="round" stroke-miterlimit="10" stroke-width="2" d="M21.707 18.147c-1.507 1.507-3.667 1.973-5.573 1.373l-3.453 3.44c-0.24 0.253-0.733 0.413-1.093 0.36l-1.6-0.213c-0.533-0.067-1.013-0.573-1.093-1.093l-0.213-1.6c-0.053-0.347 0.12-0.84 0.36-1.093l3.44-3.44c-0.587-1.907-0.133-4.067 1.373-5.573 2.16-2.16 5.68-2.16 7.853 0 2.16 2.147 2.16 5.667 0 7.84zM13.933 21.707l-1.133-1.147"></path>
<path  stroke-linejoin="round" stroke-linecap="round" stroke-miterlimit="4" stroke-width="2.6667" d="M17.859 14.267h0.012"></path>
</symbol> -->
<symbol id="icon-dashboard" viewBox="0 0 32 32">
<path  d="M12 30.333h8v-2h-8v2zM20 30.333c3.432 0 6.094-0.68 7.874-2.46s2.46-4.442 2.46-7.874h-2c0 3.235-0.653 5.239-1.874 6.46s-3.225 1.874-6.46 1.874v2zM30.333 20v-8h-2v8h2zM30.333 12c0-3.432-0.68-6.094-2.46-7.874s-4.442-2.46-7.874-2.46v2c3.235 0 5.239 0.653 6.46 1.874s1.874 3.225 1.874 6.46h2zM20 1.667h-8v2h8v-2zM12 1.667c-3.432 0-6.094 0.68-7.874 2.46s-2.46 4.442-2.46 7.874h2c0-3.235 0.653-5.239 1.874-6.46s3.225-1.874 6.46-1.874v-2zM1.667 12v8h2v-8h-2zM1.667 20c0 3.432 0.68 6.094 2.46 7.874s4.442 2.46 7.874 2.46v-2c-3.235 0-5.239-0.653-6.46-1.874s-1.874-3.225-1.874-6.46h-2z"></path>
<path  d="M21.707 18.147l0.707 0.707 0.002-0.002-0.709-0.705zM16.133 19.52l0.3-0.954c-0.355-0.112-0.742-0.017-1.006 0.245l0.706 0.708zM12.68 22.96l-0.706-0.708c-0.007 0.007-0.014 0.014-0.020 0.021l0.726 0.688zM11.587 23.32l0.147-0.989-0.014-0.002-0.132 0.991zM9.987 23.107l0.132-0.991-0.008-0.001-0.124 0.992zM8.893 22.013l-0.991 0.132c0.001 0.007 0.002 0.013 0.003 0.020l0.988-0.152zM8.68 20.413l0.991-0.132c-0.001-0.007-0.002-0.013-0.003-0.020l-0.988 0.152zM9.040 19.32l-0.707-0.707c-0.006 0.006-0.013 0.013-0.019 0.019l0.726 0.688zM12.48 15.88l0.707 0.707c0.262-0.262 0.358-0.647 0.249-1.001l-0.956 0.294zM13.853 10.307v0zM21.707 10.307v0zM21 17.44c-1.236 1.236-3.005 1.618-4.566 1.127l-0.6 1.908c2.252 0.709 4.803 0.157 6.581-1.62l-1.414-1.414zM15.428 18.812l-3.453 3.44 1.411 1.417 3.453-3.44-1.411-1.417zM11.954 22.272c0.019-0.020 0.023-0.019 0.002-0.006-0.020 0.012-0.050 0.026-0.089 0.039s-0.075 0.020-0.104 0.024c-0.031 0.004-0.040 0.001-0.029 0.003l-0.293 1.978c0.37 0.055 0.743-0.003 1.050-0.104 0.303-0.099 0.649-0.275 0.916-0.558l-1.452-1.375zM11.719 22.329l-1.6-0.213-0.264 1.982 1.6 0.213 0.264-1.982zM10.111 22.114c0.001 0-0.055-0.011-0.128-0.086s-0.098-0.146-0.101-0.168l-1.977 0.304c0.077 0.498 0.332 0.94 0.652 1.266s0.771 0.601 1.306 0.668l0.248-1.985zM9.885 21.881l-0.213-1.6-1.982 0.264 0.213 1.6 1.982-0.264zM9.668 20.261c0.004 0.025 0 0.025 0.004-0.004 0.003-0.027 0.011-0.064 0.026-0.107s0.032-0.081 0.048-0.111c0.018-0.031 0.027-0.040 0.020-0.032l-1.452-1.375c-0.245 0.258-0.412 0.584-0.512 0.881-0.099 0.294-0.169 0.672-0.111 1.052l1.977-0.304zM9.747 20.027l3.44-3.44-1.414-1.414-3.44 3.44 1.414 1.414zM13.436 15.586c-0.483-1.57-0.108-3.34 1.125-4.572l-1.414-1.414c-1.781 1.781-2.312 4.331-1.622 6.575l1.912-0.588zM14.56 11.014c1.768-1.768 4.657-1.771 6.441 0.002l1.41-1.419c-2.562-2.546-6.714-2.55-9.265 0.002l1.414 1.414zM21.002 11.016c1.764 1.753 1.77 4.64-0.004 6.426l1.419 1.41c2.545-2.561 2.552-6.714-0.004-9.254l-1.41 1.419z"></path>
<path  d="M13.222 22.41c0.388 0.393 1.021 0.396 1.414 0.008s0.396-1.021 0.008-1.414l-1.422 1.406zM13.511 19.857c-0.388-0.393-1.021-0.396-1.414-0.008s-0.396 1.021-0.008 1.414l1.422-1.406zM14.645 21.004l-1.133-1.147-1.422 1.406 1.133 1.147 1.422-1.406z"></path>
<path  d="M17.859 12.933c-0.736 0-1.333 0.597-1.333 1.333s0.597 1.333 1.333 1.333v-2.667zM17.871 15.6c0.736 0 1.333-0.597 1.333-1.333s-0.597-1.333-1.333-1.333v2.667zM17.859 15.6h0.012v-2.667h-0.012v2.667z"></path>
</symbol>





<symbol id="icon-promote" viewBox="0 0 32 32">
<path  d="M16 30.334c-0.84 0-1.627-0.32-2.213-0.92l-2.027-2.027c-0.16-0.16-0.587-0.333-0.8-0.333h-2.88c-1.733 0-3.133-1.4-3.133-3.133v-2.88c0-0.213-0.173-0.64-0.333-0.8l-2.027-2.027c-0.587-0.587-0.92-1.373-0.92-2.213s0.32-1.627 0.92-2.213l2.027-2.027c0.16-0.16 0.333-0.587 0.333-0.8v-2.88c0-1.733 1.4-3.133 3.133-3.133h2.88c0.213 0 0.64-0.173 0.8-0.333l2.027-2.027c1.173-1.173 3.253-1.173 4.427 0l2.027 2.027c0.16 0.16 0.587 0.333 0.8 0.333h2.88c1.733 0 3.133 1.4 3.133 3.133v2.88c0 0.213 0.173 0.64 0.333 0.8l2.027 2.027c0.587 0.587 0.92 1.373 0.92 2.213s-0.32 1.627-0.92 2.213l-2.027 2.027c-0.16 0.16-0.333 0.587-0.333 0.8v2.88c0 1.733-1.4 3.133-3.133 3.133h-2.88c-0.213 0-0.64 0.173-0.8 0.333l-2.027 2.027c-0.587 0.6-1.373 0.92-2.213 0.92zM6.027 18.827c0.533 0.533 0.92 1.467 0.92 2.213v2.88c0 0.627 0.507 1.133 1.133 1.133h2.88c0.747 0 1.68 0.387 2.213 0.92l2.027 2.027c0.427 0.427 1.173 0.427 1.6 0l2.027-2.027c0.533-0.533 1.467-0.92 2.213-0.92h2.88c0.627 0 1.133-0.507 1.133-1.133v-2.88c0-0.747 0.387-1.68 0.92-2.213l2.027-2.027c0.213-0.213 0.333-0.493 0.333-0.8s-0.12-0.587-0.333-0.8l-2.027-2.027c-0.533-0.533-0.92-1.467-0.92-2.213v-2.88c0-0.627-0.507-1.133-1.133-1.133h-2.88c-0.747 0-1.68-0.387-2.213-0.92l-2.027-2.027c-0.427-0.427-1.173-0.427-1.6 0l-2.027 2.027c-0.533 0.533-1.467 0.92-2.213 0.92h-2.88c-0.627 0-1.133 0.507-1.133 1.133v2.88c0 0.747-0.387 1.68-0.92 2.213l-2.027 2.027c-0.213 0.213-0.333 0.493-0.333 0.8s0.12 0.587 0.333 0.8l2.027 2.027z"></path>
<path  d="M20 21.333c-0.747 0-1.347-0.6-1.347-1.333s0.6-1.333 1.333-1.333c0.733 0 1.333 0.6 1.333 1.333s-0.587 1.333-1.32 1.333z"></path>
<path  d="M12.013 13.333c-0.747 0-1.347-0.6-1.347-1.333s0.6-1.333 1.333-1.333c0.733 0 1.333 0.6 1.333 1.333s-0.587 1.333-1.32 1.333z"></path>
<path  d="M11.999 20.999c-0.253 0-0.507-0.093-0.707-0.293-0.387-0.387-0.387-1.027 0-1.413l8-8c0.387-0.387 1.027-0.387 1.413 0s0.387 1.027 0 1.413l-8 8c-0.2 0.2-0.453 0.293-0.707 0.293z"></path>
</symbol>
<!-- <symbol id="icon-income" viewBox="0 0 32 32"> -->
<!-- <path  stroke-linejoin="round" stroke-linecap="round" stroke-miterlimit="4" stroke-width="2" d="M14.335 22.481v2.707c0 2.293-2.133 4.147-4.76 4.147s-4.773-1.853-4.773-4.147v-2.707c0 2.293 2.133 3.92 4.773 3.92 2.627 0 4.76-1.64 4.76-3.92z"></path>
<path stroke-linejoin="round" stroke-linecap="round" stroke-miterlimit="4" stroke-width="2" d="M14.333 18.813c0 0.667-0.187 1.28-0.507 1.813-0.787 1.293-2.4 2.107-4.267 2.107s-3.48-0.827-4.267-2.107c-0.32-0.533-0.507-1.147-0.507-1.813 0-1.147 0.533-2.173 1.387-2.92 0.867-0.76 2.053-1.213 3.373-1.213s2.507 0.467 3.373 1.213c0.88 0.733 1.413 1.773 1.413 2.92z"></path>
<path  stroke-linejoin="round" stroke-linecap="round" stroke-miterlimit="4" stroke-width="2" d="M14.335 18.813v3.667c0 2.293-2.133 3.92-4.76 3.92s-4.773-1.64-4.773-3.92v-3.667c0-2.293 2.133-4.147 4.773-4.147 1.32 0 2.507 0.467 3.373 1.213 0.853 0.747 1.387 1.787 1.387 2.933z"></path>
<path  stroke-linejoin="round" stroke-linecap="round" stroke-miterlimit="4" stroke-width="2" d="M29.333 14.627v2.747c0 0.733-0.587 1.333-1.333 1.36h-2.613c-1.44 0-2.76-1.053-2.88-2.493-0.080-0.84 0.24-1.627 0.8-2.173 0.493-0.507 1.173-0.8 1.92-0.8h2.773c0.747 0.027 1.333 0.627 1.333 1.36z"></path>
<path  stroke-linejoin="round" stroke-linecap="round" stroke-miterlimit="4" stroke-width="2" d="M2.667 14v-2.667c0-3.627 2.187-6.16 5.587-6.587 0.347-0.053 0.707-0.080 1.080-0.080h12c0.347 0 0.68 0.013 1 0.067 3.44 0.4 5.667 2.947 5.667 6.6v1.933h-2.773c-0.747 0-1.427 0.293-1.92 0.8-0.56 0.547-0.88 1.333-0.8 2.173 0.12 1.44 1.44 2.493 2.88 2.493h2.613v1.933c0 4-2.667 6.667-6.667 6.667h-3.333"></path> -->
<!-- </symbol> -->
<symbol id="icon-income" viewBox="0 0 32 32">
<path d="M15.335 22.481c0-0.552-0.448-1-1-1s-1 0.448-1 1h2zM5.802 22.481c0-0.552-0.448-1-1-1s-1 0.448-1 1h2zM13.335 22.481v2.707h2v-2.707h-2zM13.335 25.187c0 1.615-1.551 3.147-3.76 3.147v2c3.044 0 5.76-2.175 5.76-5.147h-2zM9.575 28.334c-2.213 0-3.773-1.535-3.773-3.147h-2c0 2.975 2.733 5.147 5.773 5.147v-2zM5.802 25.187v-2.707h-2v2.707h2zM3.802 22.481c0 3.039 2.797 4.92 5.773 4.92v-2c-2.304 0-3.773-1.373-3.773-2.92h-2zM9.575 27.401c2.967 0 5.76-1.898 5.76-4.92h-2c0 1.538-1.474 2.92-3.76 2.92v2z"></path>
<path  d="M13.827 20.627l0.854 0.52 0.003-0.005-0.857-0.515zM5.293 20.627l-0.858 0.515 0.006 0.009 0.852-0.524zM6.173 15.893l0.659 0.753 0.001-0.001-0.659-0.752zM12.92 15.893l-0.653 0.758 0.013 0.011 0.64-0.768zM13.333 18.813c0 0.474-0.132 0.911-0.364 1.299l1.715 1.029c0.407-0.679 0.649-1.469 0.649-2.328h-2zM12.972 20.107c-0.566 0.931-1.813 1.626-3.412 1.626v2c2.134 0 4.114-0.931 5.121-2.587l-1.709-1.039zM9.56 21.733c-1.594 0-2.846-0.705-3.415-1.63l-1.704 1.047c1.005 1.635 2.979 2.583 5.119 2.583v-2zM6.151 20.112c-0.233-0.388-0.364-0.824-0.364-1.299h-2c0 0.859 0.242 1.649 0.649 2.328l1.715-1.029zM5.787 18.813c0-0.82 0.378-1.584 1.045-2.167l-1.317-1.505c-1.040 0.91-1.728 2.199-1.728 3.673h2zM6.833 16.645c0.674-0.591 1.623-0.965 2.714-0.965v-2c-1.549 0-2.973 0.533-4.033 1.461l1.319 1.504zM9.547 15.68c1.084 0 2.038 0.383 2.721 0.971l1.305-1.515c-1.051-0.905-2.47-1.456-4.026-1.456v2zM12.28 16.662c0.674 0.561 1.054 1.329 1.054 2.152h2c0-1.471-0.687-2.783-1.773-3.688l-1.28 1.536z"></path>
<path  d="M12.949 15.88l0.659-0.753-0.006-0.005-0.653 0.758zM13.335 18.813v3.667h2v-3.667h-2zM13.335 22.48c0 1.549-1.472 2.92-3.76 2.92v2c2.965 0 5.76-1.882 5.76-4.92h-2zM9.575 25.4c-2.29 0-3.773-1.385-3.773-2.92h-2c0 3.025 2.81 4.92 5.773 4.92v-2zM5.802 22.48v-3.667h-2v3.667h2zM5.802 18.813c0-1.614 1.549-3.147 3.773-3.147v-2c-3.056 0-5.773 2.174-5.773 5.147h2zM9.575 15.667c1.084 0 2.038 0.383 2.721 0.971l1.305-1.515c-1.051-0.905-2.47-1.456-4.026-1.456v2zM12.29 16.633c0.664 0.581 1.045 1.357 1.045 2.181h2c0-1.469-0.685-2.773-1.728-3.686l-1.317 1.505z"></path>
<path  d="M28 18.733v1c0.012 0 0.024-0 0.036-0.001l-0.036-0.999zM22.507 16.24l0.997-0.083-0.001-0.012-0.995 0.095zM23.306 14.067l0.699 0.716c0.006-0.006 0.012-0.012 0.018-0.018l-0.716-0.698zM28 13.267l0.036-0.999c-0.012-0-0.024-0.001-0.036-0.001v1zM28.333 14.627v2.747h2v-2.747h-2zM28.333 17.373c0 0.181-0.146 0.353-0.369 0.36l0.071 1.999c1.271-0.045 2.298-1.073 2.298-2.359h-2zM28 17.733h-2.613v2h2.613v-2zM25.387 17.733c-0.999 0-1.813-0.73-1.883-1.576l-1.993 0.166c0.169 2.033 1.995 3.41 3.876 3.41v-2zM23.502 16.145c-0.050-0.524 0.148-1.017 0.503-1.363l-1.397-1.431c-0.765 0.747-1.207 1.827-1.097 2.984l1.991-0.19zM24.023 14.764c0.304-0.312 0.725-0.498 1.204-0.498v-2c-1.015 0-1.954 0.401-2.637 1.102l1.433 1.395zM25.227 14.267h2.773v-2h-2.773v2zM27.964 14.266c0.223 0.008 0.369 0.18 0.369 0.361h2c0-1.286-1.027-2.314-2.298-2.359l-0.071 1.999z"></path>
<path  d="M1.667 14c0 0.552 0.448 1 1 1s1-0.448 1-1h-2zM8.253 4.747l0.124 0.992c0.009-0.001 0.018-0.002 0.028-0.004l-0.152-0.988zM22.333 4.733l-0.164 0.986c0.016 0.003 0.033 0.005 0.049 0.007l0.116-0.993zM28 13.267v1c0.552 0 1-0.448 1-1h-1zM23.307 14.067l0.699 0.716c0.006-0.006 0.012-0.012 0.018-0.018l-0.716-0.698zM22.507 16.24l0.997-0.083-0.001-0.012-0.995 0.095zM28 18.733h1c0-0.552-0.448-1-1-1v1zM18 26.333c-0.552 0-1 0.448-1 1s0.448 1 1 1v-2zM3.667 14v-2.667h-2v2.667h2zM3.667 11.333c0-1.61 0.483-2.91 1.279-3.845 0.795-0.932 1.955-1.565 3.432-1.75l-0.249-1.984c-1.924 0.241-3.556 1.089-4.705 2.437-1.147 1.345-1.757 3.125-1.757 5.142h2zM8.405 5.735c0.293-0.045 0.602-0.068 0.928-0.068v-2c-0.421 0-0.832 0.030-1.232 0.092l0.304 1.977zM9.333 5.667h12v-2h-12v2zM21.333 5.667c0.326 0 0.596 0.013 0.836 0.053l0.329-1.973c-0.4-0.067-0.797-0.080-1.164-0.080v2zM22.218 5.727c1.496 0.174 2.674 0.804 3.482 1.74 0.809 0.938 1.3 2.246 1.3 3.867h2c0-2.033-0.622-3.825-1.786-5.173-1.166-1.351-2.821-2.194-4.765-2.42l-0.231 1.987zM27 11.333v1.933h2v-1.933h-2zM28 12.267h-2.773v2h2.773v-2zM25.227 12.267c-1.015 0-1.954 0.401-2.636 1.102l1.433 1.395c0.304-0.312 0.725-0.498 1.204-0.498v-2zM22.608 13.351c-0.765 0.747-1.207 1.827-1.097 2.984l1.991-0.19c-0.050-0.524 0.148-1.017 0.503-1.363l-1.397-1.431zM21.51 16.323c0.169 2.033 1.995 3.41 3.877 3.41v-2c-0.999 0-1.813-0.73-1.883-1.576l-1.993 0.166zM25.387 19.733h2.613v-2h-2.613v2zM27 18.733v1.933h2v-1.933h-2zM27 20.667c0 1.773-0.587 3.172-1.54 4.126s-2.353 1.54-4.126 1.54v2c2.227 0 4.161-0.747 5.54-2.126s2.126-3.313 2.126-5.54h-2zM21.333 26.333h-3.333v2h3.333v-2z"></path>
</symbol>



<symbol id="icon-chevron-right" viewBox="0 0 32 32">
<path stroke-linejoin="round" stroke-linecap="round" stroke-miterlimit="4" stroke-width="4" d="M12 24l8-8-8-8"></path>
</symbol>
<symbol id="icon-product" viewBox="0 0 32 32">
<path  d="M20 30.333h-8c-7.24 0-10.333-3.093-10.333-10.333v-8c0-7.24 3.093-10.333 10.333-10.333h8c7.24 0 10.333 3.093 10.333 10.333v8c0 7.24-3.093 10.333-10.333 10.333zM12 3.667c-6.147 0-8.333 2.187-8.333 8.333v8c0 6.147 2.187 8.333 8.333 8.333h8c6.147 0 8.333-2.187 8.333-8.333v-8c0-6.147-2.187-8.333-8.333-8.333h-8z"></path>
<path d="M16.001 17.44c-0.173 0-0.347-0.040-0.507-0.133l-7.067-4.080c-0.48-0.28-0.64-0.893-0.36-1.36 0.28-0.48 0.893-0.64 1.36-0.36l6.56 3.8 6.52-3.773c0.48-0.28 1.093-0.107 1.36 0.36s0.107 1.093-0.36 1.36l-7.013 4.053c-0.147 0.080-0.32 0.133-0.493 0.133z"></path>
<path  d="M16 24.693c-0.547 0-1-0.453-1-1v-7.253c0-0.547 0.453-1 1-1s1 0.453 1 1v7.253c0 0.547-0.453 1-1 1z"></path>
<path  d="M16 25c-0.773 0-1.533-0.173-2.147-0.507l-4.267-2.373c-1.28-0.707-2.267-2.4-2.267-3.867v-4.52c0-1.453 1-3.147 2.267-3.867l4.267-2.373c1.227-0.68 3.067-0.68 4.293 0l4.267 2.373c1.28 0.707 2.267 2.4 2.267 3.867v4.52c0 1.453-1 3.147-2.267 3.867l-4.267 2.373c-0.613 0.347-1.373 0.507-2.147 0.507zM16 9c-0.44 0-0.867 0.080-1.173 0.253l-4.267 2.373c-0.653 0.36-1.24 1.373-1.24 2.107v4.52c0 0.747 0.587 1.747 1.24 2.107l4.267 2.373c0.613 0.347 1.733 0.347 2.347 0l4.267-2.373c0.653-0.36 1.24-1.373 1.24-2.107v-4.52c0-0.747-0.587-1.747-1.24-2.107l-4.267-2.373c-0.307-0.173-0.733-0.253-1.173-0.253z"></path>
</symbol>
<symbol id="icon-help" viewBox="0 0 32 32">
<path  d="M12.333 27.507c-0.373 0-0.76-0.093-1.107-0.28-0.76-0.4-1.227-1.2-1.227-2.053v-1.893c-4.027-0.413-6.667-3.373-6.667-7.613v-8c0-4.587 3.080-7.667 7.667-7.667h13.333c4.587 0 7.667 3.080 7.667 7.667v8c0 4.587-3.080 7.667-7.667 7.667h-5.027l-5.68 3.787c-0.387 0.253-0.84 0.387-1.293 0.387zM11 1.987c-3.44 0-5.667 2.227-5.667 5.667v8c0 3.44 2.227 5.667 5.667 5.667 0.547 0 1 0.453 1 1v2.84c0 0.173 0.107 0.253 0.173 0.293s0.2 0.080 0.347-0.013l5.933-3.947c0.16-0.107 0.36-0.173 0.56-0.173h5.333c3.44 0 5.667-2.227 5.667-5.667v-8c0-3.44-2.227-5.667-5.667-5.667h-13.347z"></path>
<path  d="M17.666 13.893c-0.547 0-1-0.453-1-1v-0.28c0-1.547 1.133-2.307 1.56-2.6 0.493-0.333 0.653-0.56 0.653-0.907 0-0.667-0.547-1.213-1.213-1.213s-1.213 0.547-1.213 1.213c0 0.547-0.453 1-1 1s-1-0.453-1-1c0-1.773 1.44-3.213 3.213-3.213s3.213 1.44 3.213 3.213c0 1.52-1.12 2.28-1.533 2.56-0.52 0.347-0.68 0.573-0.68 0.947v0.28c0 0.56-0.453 1-1 1z"></path>
<path  d="M17.667 17.214c-0.56 0-1-0.453-1-1s0.453-1 1-1c0.547 0 1 0.453 1 1s-0.44 1-1 1z"></path>
</symbol>
<symbol id="icon-dashboard-logo" viewBox="0 0 32 32">
<path d="M16 30.173c-0.893 0-1.8-0.2-2.507-0.613l-7.333-4.227c-2.987-2.013-3.173-2.32-3.173-5.48v-7.707c0-3.16 0.173-3.467 3.107-5.453l7.387-4.267c1.4-0.813 3.6-0.813 5 0l7.36 4.24c2.987 2.013 3.173 2.32 3.173 5.48v7.693c0 3.16-0.173 3.467-3.107 5.453l-7.387 4.267c-0.72 0.413-1.627 0.613-2.52 0.613zM16 3.826c-0.56 0-1.107 0.107-1.493 0.333l-7.333 4.24c-2.173 1.467-2.173 1.467-2.173 3.747v7.693c0 2.28 0 2.28 2.227 3.787l7.28 4.2c0.787 0.453 2.213 0.453 3 0l7.333-4.24c2.16-1.467 2.16-1.467 2.16-3.747v-7.693c0-2.28 0-2.28-2.227-3.787l-7.28-4.2c-0.387-0.227-0.933-0.333-1.493-0.333z"></path>
<path d="M16 21c-2.76 0-5-2.24-5-5s2.24-5 5-5c2.76 0 5 2.24 5 5s-2.24 5-5 5zM16 13c-1.653 0-3 1.347-3 3s1.347 3 3 3c1.653 0 3-1.347 3-3s-1.347-3-3-3z"></path>
</symbol>
<symbol id="icon-customers" viewBox="0 0 32 32">
<path  d="M20.001 30.333h-8c-1.76 0-3.227-0.173-4.467-0.547-0.453-0.133-0.747-0.573-0.72-1.040 0.333-3.987 4.373-7.12 9.187-7.12s8.84 3.12 9.187 7.12c0.040 0.48-0.253 0.907-0.72 1.040-1.24 0.373-2.707 0.547-4.467 0.547zM8.961 28.080c0.88 0.173 1.88 0.253 3.040 0.253h8c1.16 0 2.16-0.080 3.040-0.253-0.707-2.56-3.627-4.453-7.040-4.453s-6.333 1.893-7.040 4.453z"></path>
<path d="M7.813 28.827l-0.272 0.962c0.287 0.081 0.596 0.030 0.841-0.14s0.402-0.441 0.427-0.738l-0.996-0.084zM24.187 28.827l-0.996 0.084c0.025 0.297 0.182 0.568 0.427 0.738s0.554 0.221 0.841 0.14l-0.272-0.962zM20 1.667h-8v2h8v-2zM12 1.667c-3.432 0-6.094 0.68-7.874 2.46s-2.46 4.442-2.46 7.874h2c0-3.235 0.653-5.239 1.874-6.46s3.225-1.874 6.46-1.874v-2zM1.667 12v8h2v-8h-2zM1.667 20c0 2.601 0.389 4.752 1.347 6.417 0.982 1.706 2.501 2.798 4.528 3.372l0.545-1.924c-1.6-0.453-2.654-1.254-3.339-2.445-0.709-1.232-1.080-2.98-1.080-5.42h-2zM8.81 28.911c0.236-2.79 3.2-5.284 7.19-5.284v-2c-4.676 0-8.832 2.972-9.183 7.116l1.993 0.169zM16 23.627c3.99 0 6.954 2.494 7.19 5.284l1.993-0.169c-0.351-4.143-4.507-7.116-9.183-7.116v2zM24.459 29.789c2.027-0.574 3.546-1.666 4.528-3.372 0.958-1.665 1.347-3.816 1.347-6.417h-2c0 2.439-0.371 4.188-1.080 5.42-0.685 1.191-1.739 1.992-3.339 2.445l0.545 1.924zM30.333 20v-8h-2v8h2zM30.333 12c0-3.432-0.68-6.094-2.46-7.874s-4.442-2.46-7.874-2.46v2c3.235 0 5.239 0.653 6.46 1.874s1.874 3.225 1.874 6.46h2zM16 17.893c-2.084 0-3.773-1.695-3.773-3.787h-2c0 3.189 2.577 5.787 5.773 5.787v-2zM12.227 14.107c0-2.088 1.686-3.773 3.773-3.773v-2c-3.192 0-5.773 2.581-5.773 5.773h2zM16 10.333c2.088 0 3.773 1.686 3.773 3.773h2c0-3.192-2.581-5.773-5.773-5.773v2zM19.773 14.107c0 2.091-1.689 3.787-3.773 3.787v2c3.196 0 5.773-2.598 5.773-5.787h-2z"></path>
<path  d="M16 19.893c-3.187 0-5.773-2.6-5.773-5.787s2.587-5.773 5.773-5.773c3.187 0 5.773 2.587 5.773 5.773s-2.587 5.787-5.773 5.787zM16 10.333c-2.080 0-3.773 1.693-3.773 3.773 0 2.093 1.693 3.787 3.773 3.787s3.773-1.693 3.773-3.787c0-2.080-1.693-3.773-3.773-3.773z"></path>
</symbol>
<symbol id="icon-search" viewBox="0 0 32 32">
<path fill="none" stroke="#7e7e7e" style="stroke: var(--color1, #7e7e7e)" stroke-linejoin="round" stroke-linecap="round" stroke-miterlimit="4" stroke-width="2.6667" d="M14.667 25.333c5.891 0 10.667-4.776 10.667-10.667s-4.776-10.667-10.667-10.667c-5.891 0-10.667 4.776-10.667 10.667s4.776 10.667 10.667 10.667z"></path>
<path fill="none" stroke="#7e7e7e" style="stroke: var(--color1, #7e7e7e)" stroke-linejoin="round" stroke-linecap="round" stroke-miterlimit="4" stroke-width="2.6667" d="M28 28l-5.8-5.8"></path>
</symbol>
</defs></svg>